<svg xmlns="http://www.w3.org/2000/svg" xmlns:xlink="http://www.w3.org/1999/xlink" width="64" height="64" fill="none" viewBox="0 0 64 64">
    <defs>
        <linearGradient id="b">
            <stop offset=".175" style="stop-color:#d1dedb;stop-opacity:1"/>
            <stop offset=".587" style="stop-color:#5d6c6a;stop-opacity:1"/>
        </linearGradient>
        <linearGradient id="a">
            <stop offset=".378" style="stop-color:#b3c7c3;stop-opacity:1"/>
            <stop offset="1" style="stop-color:#5d6c6a;stop-opacity:1"/>
        </linearGradient>
        <linearGradient xlink:href="#a" id="c" x1="4.075" x2="53.579" y1="62.464" y2="7.883" gradientUnits="userSpaceOnUse"/>
        <linearGradient xlink:href="#b" id="d" x1="47.232" x2="59.925" y1="14.229" y2="1.536" gradientUnits="userSpaceOnUse"/>
    </defs>
    <path d="M59.925 14.23v40.618a7.6 7.6 0 0 1-7.616 7.616H11.691a7.6 7.6 0 0 1-7.616-7.616V9.152a7.6 7.6 0 0 1 7.616-7.616h35.541m0 0 12.693 12.693" style="fill:url(#c);fill-opacity:1;stroke-width:1.26934"/>
    <rect width="40.619" height="3.808" x="11.691" y="21.845" fill="#333" rx="1.904" style="fill:#5d6c6a;fill-opacity:1;stroke-width:1.26934"/>
    <rect width="35.541" height="3.808" x="11.691" y="32" fill="#333" rx="1.904" style="fill:#5d6c6a;fill-opacity:1;stroke-width:1.26934"/>
    <rect width="30.464" height="3.808" x="11.691" y="42.155" fill="#333" rx="1.904" style="fill:#5d6c6a;fill-opacity:1;stroke-width:1.26934"/>
    <path d="m59.925 14.23-5.078-.001a7.6 7.6 0 0 1-7.615-7.616V1.535" style="fill:url(#d);fill-opacity:1;stroke-width:1.26934"/>
</svg>